<svg xmlns="http://www.w3.org/2000/svg" width="1200" height="630" viewBox="0 0 1200 630" role="img" aria-labelledby="t">
  <title id="t">Sua Marca: apart hotel na Praia do Itararé</title>
  <defs><linearGradient id="og" x1="0" y1="0" x2="0" y2="1"><stop offset="0" stop-color="#f9d9b0"/><stop offset="1" stop-color="#cfe6f0"/></linearGradient></defs><rect width="1200" height="630" fill="url(#og)"/>
  <circle cx="960" cy="200" r="90" fill="#f2b35b"/>
  <rect x="0" y="380" width="1200" height="160" fill="#2f8aa6"/>
  <path d="M0 440 q22 -6 45 0 t45 0 q22 -6 45 0 t45 0 q22 -6 45 0 t45 0 q22 -6 45 0 t45 0 q22 -6 45 0 t45 0 q22 -6 45 0 t45 0 q22 -6 45 0 t45 0 q22 -6 45 0 t45 0 q22 -6 45 0 t45 0 q22 -6 45 0 t45 0 q22 -6 45 0 t45 0 q22 -6 45 0 t45 0 q22 -6 45 0 t45 0 q22 -6 45 0 t45 0 q22 -6 45 0 t45 0" fill="none" stroke="#7cc0d3" stroke-width="3" stroke-linecap="round"/>
  <path d="M0 540 Q600 510 1200 540 V630 H0 Z" fill="#f1e3c4"/>
  <rect x="760" y="120" width="120" height="420" rx="6" fill="#025b7c"/><rect x="768" y="132" width="104" height="7" rx="2" fill="#ffffff" opacity="0.7"/><rect x="768" y="158" width="104" height="7" rx="2" fill="#ffffff" opacity="0.7"/><rect x="768" y="184" width="104" height="7" rx="2" fill="#ffffff" opacity="0.7"/><rect x="768" y="210" width="104" height="7" rx="2" fill="#ffffff" opacity="0.7"/><rect x="768" y="236" width="104" height="7" rx="2" fill="#ffffff" opacity="0.7"/><rect x="768" y="262" width="104" height="7" rx="2" fill="#ffffff" opacity="0.7"/><rect x="768" y="288" width="104" height="7" rx="2" fill="#ffffff" opacity="0.7"/><rect x="768" y="314" width="104" height="7" rx="2" fill="#ffffff" opacity="0.7"/><rect x="768" y="340" width="104" height="7" rx="2" fill="#ffffff" opacity="0.7"/><rect x="768" y="366" width="104" height="7" rx="2" fill="#ffffff" opacity="0.7"/><rect x="768" y="392" width="104" height="7" rx="2" fill="#ffffff" opacity="0.7"/><rect x="768" y="418" width="104" height="7" rx="2" fill="#ffffff" opacity="0.7"/><rect x="768" y="444" width="104" height="7" rx="2" fill="#ffffff" opacity="0.7"/><rect x="768" y="470" width="104" height="7" rx="2" fill="#ffffff" opacity="0.7"/><rect x="768" y="496" width="104" height="7" rx="2" fill="#ffffff" opacity="0.7"/><rect x="768" y="522" width="104" height="7" rx="2" fill="#ffffff" opacity="0.7"/><rect x="890" y="220" width="90" height="320" rx="6" fill="#5795aa"/><rect x="898" y="232" width="74" height="7" rx="2" fill="#ffffff" opacity="0.7"/><rect x="898" y="258" width="74" height="7" rx="2" fill="#ffffff" opacity="0.7"/><rect x="898" y="284" width="74" height="7" rx="2" fill="#ffffff" opacity="0.7"/><rect x="898" y="310" width="74" height="7" rx="2" fill="#ffffff" opacity="0.7"/><rect x="898" y="336" width="74" height="7" rx="2" fill="#ffffff" opacity="0.7"/><rect x="898" y="362" width="74" height="7" rx="2" fill="#ffffff" opacity="0.7"/><rect x="898" y="388" width="74" height="7" rx="2" fill="#ffffff" opacity="0.7"/><rect x="898" y="414" width="74" height="7" rx="2" fill="#ffffff" opacity="0.7"/><rect x="898" y="440" width="74" height="7" rx="2" fill="#ffffff" opacity="0.7"/><rect x="898" y="466" width="74" height="7" rx="2" fill="#ffffff" opacity="0.7"/><rect x="898" y="492" width="74" height="7" rx="2" fill="#ffffff" opacity="0.7"/><rect x="898" y="518" width="74" height="7" rx="2" fill="#ffffff" opacity="0.7"/>
  <rect x="80" y="330" width="560" height="220" rx="14" fill="#0b2a3d"/>
  <text x="112" y="380" font-family="Manrope, Arial, sans-serif" font-size="16" letter-spacing="3" fill="#e5f4f9">PRAIA DO ITARARÉ, SÃO VICENTE</text>
  <text x="112" y="440" font-family="Georgia, serif" font-size="52" font-weight="600" fill="#ffffff">O mar na janela,</text>
  <text x="112" y="500" font-family="Georgia, serif" font-size="52" font-weight="600" fill="#ffffff">a 70 km de São Paulo</text>
  <text x="112" y="535" font-family="Manrope, Arial, sans-serif" font-size="20" fill="#e5f4f9">Sua Marca, apart hotel de frente para a praia</text>
</svg>
